<svg xmlns="http://www.w3.org/2000/svg" xmlns:xlink="http://www.w3.org/1999/xlink" width="32px" height="32px" viewBox="0 0 32 32" version="1.1">
<defs>
<filter id="alpha" filterUnits="objectBoundingBox" x="0%" y="0%" width="100%" height="100%">
  <feColorMatrix type="matrix" in="SourceGraphic" values="0 0 0 0 1 0 0 0 0 1 0 0 0 0 1 0 0 0 1 0"/>
</filter>
<mask id="mask0">
  <g filter="url(#alpha)">
<rect x="0" y="0" width="32" height="32" style="fill:rgb(0%,0%,0%);fill-opacity:0.2;stroke:none;"/>
  </g>
</mask>
<clipPath id="clip1">
  <rect x="0" y="0" width="32" height="32"/>
</clipPath>
<g id="surface5" clip-path="url(#clip1)">
<path style=" stroke:none;fill-rule:nonzero;fill:rgb(100%,100%,100%);fill-opacity:1;" d="M 29.089844 1.453125 L 26.253906 1.453125 C 26.328125 1.96875 26.488281 2.457031 26.707031 2.910156 L 29.089844 2.910156 C 29.894531 2.910156 30.546875 3.558594 30.546875 4.363281 L 30.546875 2.910156 C 30.546875 2.105469 29.894531 1.453125 29.089844 1.453125 Z M 29.089844 1.453125 "/>
</g>
<mask id="mask1">
  <g filter="url(#alpha)">
<rect x="0" y="0" width="32" height="32" style="fill:rgb(0%,0%,0%);fill-opacity:0.2;stroke:none;"/>
  </g>
</mask>
<clipPath id="clip2">
  <rect x="0" y="0" width="32" height="32"/>
</clipPath>
<g id="surface8" clip-path="url(#clip2)">
<path style=" stroke:none;fill-rule:nonzero;fill:rgb(100%,100%,100%);fill-opacity:1;" d="M 25.15625 2.910156 C 24.992188 2.445312 24.859375 1.960938 24.800781 1.453125 L 7.199219 1.453125 C 7.140625 1.964844 7.007812 2.445312 6.84375 2.910156 Z M 25.15625 2.910156 "/>
</g>
<mask id="mask2">
  <g filter="url(#alpha)">
<rect x="0" y="0" width="32" height="32" style="fill:rgb(0%,0%,0%);fill-opacity:0.2;stroke:none;"/>
  </g>
</mask>
<clipPath id="clip3">
  <rect x="0" y="0" width="32" height="32"/>
</clipPath>
<g id="surface11" clip-path="url(#clip3)">
<path style=" stroke:none;fill-rule:nonzero;fill:rgb(100%,100%,100%);fill-opacity:1;" d="M 2.910156 2.910156 L 5.292969 2.910156 C 5.511719 2.457031 5.671875 1.96875 5.746094 1.453125 L 2.910156 1.453125 C 2.105469 1.453125 1.453125 2.105469 1.453125 2.910156 L 1.453125 4.363281 C 1.453125 3.558594 2.105469 2.910156 2.910156 2.910156 Z M 2.910156 2.910156 "/>
</g>
<linearGradient id="linear0" gradientUnits="userSpaceOnUse" x1="-67.7858" y1="620.9866" x2="-44.2115" y2="609.998" gradientTransform="matrix(1.454544,0,0,-1.454544,97.507651,907.856738)">
<stop offset="0" style="stop-color:rgb(100%,100%,100%);stop-opacity:0.2;"/>
<stop offset="1" style="stop-color:rgb(100%,100%,100%);stop-opacity:0;"/>
</linearGradient>
</defs>
<g id="surface1">
<path style=" stroke:none;fill-rule:nonzero;fill:rgb(18.823529%,23.529412%,25.882353%);fill-opacity:1;" d="M 29.089844 0 L 2.910156 0 C 1.304688 0 0 1.304688 0 2.910156 L 0 17.453125 C 0 19.058594 1.304688 20.363281 2.910156 20.363281 L 13.089844 20.363281 L 13.089844 29.089844 C 13.089844 31.089844 17.238281 32 21.089844 32 C 24.945312 32 29.089844 31.089844 29.089844 29.089844 L 29.089844 20.363281 C 30.695312 20.363281 32 19.058594 32 17.453125 L 32 2.910156 C 32 1.304688 30.695312 0 29.089844 0 Z M 29.089844 0 "/>
<path style=" stroke:none;fill-rule:nonzero;fill:rgb(48.627451%,70.196078%,25.882353%);fill-opacity:1;" d="M 30.546875 2.910156 L 30.546875 5.746094 C 28.324219 5.421875 26.578125 3.675781 26.253906 1.453125 L 29.089844 1.453125 C 29.894531 1.453125 30.546875 2.105469 30.546875 2.910156 Z M 30.546875 2.910156 "/>
<path style=" stroke:none;fill-rule:nonzero;fill:rgb(48.627451%,70.196078%,25.882353%);fill-opacity:1;" d="M 2.910156 1.453125 L 5.746094 1.453125 C 5.421875 3.675781 3.675781 5.421875 1.453125 5.746094 L 1.453125 2.910156 C 1.453125 2.105469 2.105469 1.453125 2.910156 1.453125 Z M 2.910156 1.453125 "/>
<path style=" stroke:none;fill-rule:nonzero;fill:rgb(48.627451%,70.196078%,25.882353%);fill-opacity:1;" d="M 1.453125 17.453125 L 1.453125 14.617188 C 3.675781 14.941406 5.421875 16.6875 5.746094 18.910156 L 2.910156 18.910156 C 2.105469 18.910156 1.453125 18.257812 1.453125 17.453125 Z M 1.453125 17.453125 "/>
<path style=" stroke:none;fill-rule:nonzero;fill:rgb(58.823529%,76.078431%,40.784314%);fill-opacity:1;" d="M 7.199219 18.910156 C 6.859375 15.886719 4.476562 13.503906 1.453125 13.164062 L 1.453125 7.199219 C 4.476562 6.859375 6.859375 4.476562 7.199219 1.453125 L 24.800781 1.453125 C 25.140625 4.476562 27.523438 6.859375 30.546875 7.199219 L 30.546875 13.15625 C 27.933594 13.449219 25.769531 15.269531 25.03125 17.796875 C 23.804688 17.566406 22.433594 17.453125 21.089844 17.453125 C 18.34375 17.453125 15.457031 17.917969 14.019531 18.910156 Z M 7.199219 18.910156 "/>
<path style=" stroke:none;fill-rule:nonzero;fill:rgb(100%,83.529412%,32.54902%);fill-opacity:1;" d="M 14.546875 20.371094 C 14.660156 19.96875 16.839844 18.910156 21.089844 18.910156 C 25.308594 18.910156 27.488281 19.953125 27.632812 20.363281 C 27.488281 20.773438 25.308594 21.816406 21.089844 21.816406 C 16.839844 21.816406 14.660156 20.757812 14.546875 20.375 Z M 14.546875 20.371094 "/>
<path style=" stroke:none;fill-rule:nonzero;fill:rgb(100%,79.215686%,15.686275%);fill-opacity:1;" d="M 14.546875 22.128906 C 16.09375 22.90625 18.648438 23.273438 21.089844 23.273438 C 23.535156 23.273438 26.089844 22.90625 27.636719 22.128906 L 27.636719 24.714844 C 27.527344 25.121094 25.347656 26.183594 21.089844 26.183594 C 16.835938 26.183594 14.65625 25.121094 14.546875 24.726562 Z M 14.546875 22.128906 "/>
<path style=" stroke:none;fill-rule:nonzero;fill:rgb(100%,79.215686%,15.686275%);fill-opacity:1;" d="M 21.089844 30.546875 C 16.835938 30.546875 14.65625 29.484375 14.546875 29.089844 L 14.546875 26.492188 C 16.09375 27.269531 18.648438 27.636719 21.089844 27.636719 C 23.535156 27.636719 26.089844 27.269531 27.636719 26.492188 L 27.636719 29.082031 C 27.527344 29.484375 25.347656 30.546875 21.089844 30.546875 Z M 21.089844 30.546875 "/>
<path style=" stroke:none;fill-rule:nonzero;fill:rgb(48.627451%,70.196078%,25.882353%);fill-opacity:1;" d="M 21.089844 10.183594 C 21.089844 6.164062 18.8125 2.910156 16 2.910156 C 13.1875 2.910156 10.910156 6.164062 10.910156 10.183594 C 10.910156 14.199219 13.1875 17.453125 16 17.453125 C 18.8125 17.453125 21.089844 14.199219 21.089844 10.183594 Z M 21.089844 10.183594 "/>
<path style=" stroke:none;fill-rule:nonzero;fill:rgb(48.627451%,70.196078%,25.882353%);fill-opacity:1;" d="M 29.089844 18.910156 L 28.160156 18.910156 C 27.710938 18.601562 27.125 18.339844 26.441406 18.132812 C 27.019531 16.253906 28.609375 14.890625 30.546875 14.609375 L 30.546875 17.453125 C 30.546875 18.257812 29.894531 18.910156 29.089844 18.910156 Z M 29.089844 18.910156 "/>
<path style=" stroke:none;fill-rule:nonzero;fill:rgb(18.823529%,23.529412%,25.882353%);fill-opacity:1;" d="M 15.273438 14.546875 L 15.273438 15.273438 C 15.273438 15.675781 15.597656 16 16 16 C 16.402344 16 16.726562 15.675781 16.726562 15.273438 L 16.726562 14.507812 C 17.957031 14.332031 18.910156 13.277344 18.910156 12 C 18.910156 10.597656 17.765625 9.453125 16.363281 9.453125 L 15.636719 9.453125 C 15.035156 9.453125 14.546875 8.964844 14.546875 8.363281 C 14.546875 7.761719 15.035156 7.273438 15.636719 7.273438 L 18.183594 7.273438 C 18.582031 7.273438 18.910156 6.949219 18.910156 6.546875 C 18.910156 6.144531 18.582031 5.816406 18.183594 5.816406 L 16.726562 5.816406 L 16.726562 5.089844 C 16.726562 4.6875 16.402344 4.363281 16 4.363281 C 15.597656 4.363281 15.273438 4.6875 15.273438 5.089844 L 15.273438 5.855469 C 14.042969 6.035156 13.089844 7.085938 13.089844 8.363281 C 13.089844 9.765625 14.234375 10.910156 15.636719 10.910156 L 16.363281 10.910156 C 16.964844 10.910156 17.453125 11.398438 17.453125 12 C 17.453125 12.601562 16.964844 13.089844 16.363281 13.089844 L 13.816406 13.089844 C 13.417969 13.089844 13.089844 13.417969 13.089844 13.816406 C 13.089844 14.21875 13.417969 14.546875 13.816406 14.546875 Z M 15.273438 14.546875 "/>
<path style=" stroke:none;fill-rule:nonzero;fill:rgb(18.823529%,23.529412%,25.882353%);fill-opacity:1;" d="M 7.273438 8.726562 C 6.46875 8.726562 5.816406 9.378906 5.816406 10.183594 C 5.816406 10.984375 6.46875 11.636719 7.273438 11.636719 C 8.074219 11.636719 8.726562 10.984375 8.726562 10.183594 C 8.726562 9.378906 8.074219 8.726562 7.273438 8.726562 Z M 7.273438 10.183594 C 7.273438 10.183594 7.273438 10.179688 7.273438 10.179688 L 8 10.183594 Z M 7.273438 10.183594 "/>
<path style=" stroke:none;fill-rule:nonzero;fill:rgb(18.823529%,23.529412%,25.882353%);fill-opacity:1;" d="M 24.726562 11.636719 C 25.53125 11.636719 26.183594 10.984375 26.183594 10.183594 C 26.183594 9.378906 25.53125 8.726562 24.726562 8.726562 C 23.925781 8.726562 23.273438 9.378906 23.273438 10.183594 C 23.273438 10.984375 23.925781 11.636719 24.726562 11.636719 Z M 24.726562 10.179688 L 25.453125 10.183594 L 24.726562 10.183594 C 24.726562 10.183594 24.726562 10.179688 24.726562 10.179688 Z M 24.726562 10.179688 "/>
<use xlink:href="#surface5" mask="url(#mask0)"/>
<use xlink:href="#surface8" mask="url(#mask1)"/>
<use xlink:href="#surface11" mask="url(#mask2)"/>
<path style=" stroke:none;fill-rule:nonzero;fill:url(#linear0);" d="M 29.089844 0 L 2.910156 0 C 1.304688 0 0 1.304688 0 2.910156 L 0 17.453125 C 0 19.058594 1.304688 20.363281 2.910156 20.363281 L 13.089844 20.363281 L 13.089844 29.089844 C 13.089844 31.089844 17.238281 32 21.089844 32 C 24.945312 32 29.089844 31.089844 29.089844 29.089844 L 29.089844 20.363281 C 30.695312 20.363281 32 19.058594 32 17.453125 L 32 2.910156 C 32 1.304688 30.695312 0 29.089844 0 Z M 29.089844 0 "/>
</g>
</svg>
